<svg width="479" height="210" viewBox="0 0 479 210" fill="none" xmlns="http://www.w3.org/2000/svg">
<path d="M436.566 41.0645C436.833 41.0647 437.015 41.1722 437.276 41.2735C439.327 43.8954 437.659 48.044 436.536 50.9529C436.043 52.2283 433.804 54.0835 432.793 55.1658C426.362 62.0642 418.345 64.282 409.551 66.6842C410.653 71.8891 410.081 79.5374 409.054 84.8372C408.682 86.7548 408.267 88.4455 408.052 90.4189C407.08 98.6769 406.44 106.971 406.137 115.28C405.651 127.227 409.025 140.071 405.91 151.98C404.834 156.09 401.957 154.998 399.04 153.953C397.541 151.863 394.702 149.16 393.515 146.896C391.388 142.839 389.641 132.305 389.163 127.678C388.593 122.184 389.382 119.486 388.081 113.178C385.235 111.037 382.141 108.21 378.465 107.4C372.375 106.258 366.044 106.186 359.861 105.944C351.289 105.609 342.555 105.422 333.976 105.232C324.273 105.058 314.57 105.242 304.882 105.784C302.631 105.915 299.238 105.849 297.108 106.211C287.833 107.79 278.831 109.93 269.504 111.355C258.251 113.075 246.993 113.231 235.677 114.399C232.006 114.589 228.299 114.338 224.628 114.417C213.375 114.658 202.083 114.813 190.868 113.866C190.223 113.812 186.673 114.683 186.521 115.257C184.384 123.365 182.866 131.6 180.429 139.684C179.664 142.272 178.361 155.711 175.019 155.895C173.441 153.261 178.77 132.956 179.505 129.027C180.013 126.8 181.22 124.194 181.658 122.005C182.295 118.471 182.029 115.432 184.574 112.549C185.809 111.149 188.283 110.622 190.12 110.594C194.733 110.522 199.511 110.371 204.117 110.62C218.116 111.377 232.174 110.735 246.199 110.727C252.364 110.886 257.263 110.551 263.304 109.186C269.004 107.897 275.274 107.435 281.021 105.918C283.034 105.387 286.324 105.436 288.531 105.122C300.125 103.47 311.74 102.006 323.437 101.341C327.738 101.104 332.252 101.75 336.542 101.999C339.767 102.186 343.078 102.027 346.305 102.27C349.88 102.58 353.446 103.154 357.035 103.341C362.787 103.718 369.061 102.964 374.727 103.664C377.58 104.016 386.113 106.168 388.156 107.963C391.332 110.752 391.14 118.005 391.467 121.912C391.664 124.256 392.46 126.675 392.829 129.008C393.77 135.719 395.134 146.135 400.563 150.806C401.084 151.255 401.387 151.165 401.962 151.083C403.136 150.035 403.174 148.657 403.573 147.197C405.938 138.526 403.251 129.961 403.232 121.253C403.195 120.707 403.227 120.068 403.167 119.529C401.471 104.403 405.371 89.8688 407.641 75.0501C408.64 68.5271 403.678 66.5653 404.019 65.0949C406.219 63.189 412.295 63.0227 415.041 62.2193C422.177 60.1299 431.805 55.4839 434.701 48.2851C434.572 47.556 434.341 45.8671 433.659 45.6174C427.978 44.1138 421.923 49.8929 416.729 51.7591C412.596 53.4767 408.204 54.2858 404.39 56.7019C403.012 57.5755 400.397 59.1964 398.919 59.6501C393.396 61.3434 387.388 63.0696 381.748 64.1766C379.268 64.74 376.908 65.7078 374.346 66.3205C367.189 68.033 359.476 69.016 352.426 71.0312C345.768 72.9335 339.335 75.0747 332.462 76.3643C328.768 77.1805 324.661 77.5321 321.001 78.3592C314.631 80.0243 308.562 79.8343 302.117 80.1231C296.475 80.3758 290.987 80.7619 285.301 80.8383C281.362 80.8914 276.701 82.3013 272.603 82.3595C265.898 82.4548 259.215 82.6445 252.518 82.8972C249.417 83.0227 245.961 82.5522 242.794 82.5693C236.45 82.6034 230.102 82.7531 223.766 82.4985C220.516 82.7608 217.167 80.8857 214.206 80.6248C209.211 80.1847 204.394 79.0058 199.482 78.3366C192.151 77.3426 184.107 76.6801 177.063 74.4052C173.09 73.1223 169.495 71.4596 165.301 70.5864C162.819 70.0697 159.882 67.7349 157.224 68.4516C155.734 69.9791 157.571 83.7132 157.787 86.7055C158.014 89.552 158.114 92.4073 158.088 95.2627C157.945 107.322 153.202 140.694 144.553 149.165C130.701 149.169 127.175 135.493 124.962 124.32C123.943 119.173 124.775 112.13 121.581 107.669C118.832 104.241 112.838 105.995 108.979 105.976C104.362 105.881 100.688 106.736 96.2771 107.785C87.2577 109.932 77.5808 112.223 68.4622 113.642C64.1092 114.319 57.6431 112.866 53.1806 112.647C50.2972 112.505 47.6304 110.72 44.7002 111.124C44.2313 111.172 43.9416 110.743 43.6978 110.394C43.5544 109.151 43.5789 108.405 44.1893 107.237C45.2922 105.127 49.1263 104.719 50.4824 103.69C53.4153 101.464 56.2537 98.8437 59.3289 96.6951C62.6941 94.3442 66.3727 92.8284 69.9861 90.9001C71.129 90.2904 73.0604 88.7791 73.7693 88.4658C77 87.0381 80.6723 86.1547 83.7944 84.3906C87.2853 82.4181 90.2038 79.6124 93.8062 77.8019C96.3908 76.5028 101.179 75.3919 103.288 73.7063C105.99 71.5479 108.827 68.6847 111.484 66.3729C112.997 65.0552 116.873 62.6064 117.952 61.4744C123.949 55.1793 129.319 48.0559 138.161 45.645C140.922 44.8924 144.011 45.3007 146.459 46.9024C152.448 50.8202 152.866 55.9193 154.301 61.9182C155.723 62.633 156.149 63.5219 157.252 64.0236C159.616 65.1934 162.984 65.4672 165.319 66.4656C170.93 68.8651 176.345 70.8032 182.374 71.9244C183.255 72.0884 184.478 72.9452 185.335 73.1104C190.38 74.0817 195.538 74.2181 200.605 75.0716C202.437 75.376 204.49 75.3148 206.321 75.6549C212.981 76.8922 219.452 78.8768 226.243 79.3431C229.295 79.5671 231.877 79.6176 234.948 79.6753C238.122 79.7213 241.431 80.1787 244.592 80.0775C252.046 79.839 259.465 79.4788 266.928 79.4529C269.843 79.2992 273.011 78.4181 275.898 78.3305C284.68 78.0642 293.33 77.5697 302.042 76.3795C304.022 76.1092 306.717 76.4003 308.812 76.2473C313.725 75.8883 318.69 75.6579 323.577 75.002C332.6 73.7191 341.733 70.3199 350.53 67.9363C353.89 66.784 357.899 66.6581 361.201 65.7711C366.514 64.3429 371.719 63.1135 377.15 62.1343C379.752 61.6653 382.512 60.5786 385.137 60.0296C387.654 59.5027 390.183 58.7998 392.672 58.1611C399.939 55.3727 407.23 52.4489 414.301 49.1933C416.029 48.3673 418.674 47.7078 420.265 46.8559C424.076 44.8155 426.093 43.5833 430.46 43.5153C432.125 43.4892 434.962 41.9358 436.566 41.0645ZM84.7166 107.132C85.5928 105.596 85.9732 105.202 87.3588 104C88.4587 105.017 89.8638 105.994 91.0855 106.89C95.0824 105.463 98.8023 103.179 103.009 102.537C108.695 101.669 116.208 104.234 121.551 101.647C123.011 100.94 124.404 91.7385 124.785 89.7525C125.539 85.6179 126.757 81.5814 128.416 77.7203C128.994 76.3398 130.158 73.389 130.909 72.1657C133.594 67.7924 138.89 64.9278 143.543 63.1042C145.545 62.3196 148.236 62.2338 150.289 61.3964C150.987 59.3359 147.33 53.2828 146.456 51.1632C144.2 49.9263 141.599 48.2661 138.968 48.3743C136.151 50.0776 132.429 51.9693 129.891 53.8296C128.151 55.1048 126.719 56.7593 125.172 58.2508C123.208 60.1436 121.134 61.9645 119.133 63.8223C117.905 64.961 116.401 65.7767 115.149 66.8847C113.426 68.4093 112.172 70.4217 110.351 71.8539C106.573 74.8245 101.625 77.4839 97.2987 79.6227C95.8801 80.3242 94.3896 80.8701 92.9903 81.6111C89.7921 83.3051 86.8855 85.3516 83.5964 86.9234C78.6741 89.2755 51.8699 102.554 50.6836 107.044C50.5961 107.375 50.5832 107.703 50.6078 108.044C51.8706 109.274 63.0738 110.075 65.3452 110.18C70.3301 110 80.1546 109.222 84.7166 107.132ZM135.959 143.46C139.395 146.637 140.388 147.577 144.465 145.289C147.936 138.078 150.648 133.249 151.531 125.276C151.901 121.934 153.225 117.489 153.767 113.942C155.584 102.014 155.698 89.8893 154.104 77.9301C153.636 74.1342 153.078 68.7174 151.437 65.3105C150.054 64.9159 149.573 64.7662 148.094 64.7506C133.384 70.2365 129.828 76.1356 127.884 91.2825C127.386 95.1672 124.929 99.9567 124.738 103.984C124.662 106.548 125.924 112.903 126.383 115.756C126.697 117.71 126.731 120.992 127.023 122.462C127.964 127.206 129.237 132.424 130.886 136.965C132.119 140.358 133.837 140.93 135.959 143.46Z" fill="white"/>
</svg>
