<svg width="1024" height="1024" viewBox="0 0 1024 1024" fill="none" xmlns="http://www.w3.org/2000/svg">
<path d="M499.816 157.72C527.73 156.58 555.68 158.79 583.07 164.305C673.475 182.823 752.97 236.159 804.385 312.793C855.89 389.652 875.065 483.697 857.77 574.585C837.91 674.83 785.63 748.925 701.51 805.35C701.78 784.695 696.43 763.785 690.025 744.27C685.66 730.59 680.73 717.1 675.235 703.835C668.865 688.67 660.63 671.75 655.06 656.595C642.53 622.54 634.82 582.185 638.575 545.93C641.235 520.315 649.94 496.137 657.28 471.639C659.615 463.831 661.49 455.299 663.5 447.329C663.555 455.193 662.195 463.47 661.93 471.467C660.81 505.665 657.7 547.515 684.76 573.235C700.66 588.35 724.57 589.14 739.13 572.075C751.395 557.705 753.445 539.76 760.97 523.095C770.28 503.19 784.97 484.791 783.43 461.473C782.31 444.359 765.365 431.015 753.89 419.793C744.475 410.727 735.405 401.305 726.705 391.55C718.465 382.341 710.655 371.67 703.025 361.949C687.525 342.204 676.2 323.991 648.755 326.043C646.205 323.31 643.6 320.624 640.95 317.987C609.265 286.986 568.19 277.113 525.21 277.587C509.61 278.645 495.073 276.922 479.182 278.001C439.343 280.707 401.946 295.77 375.248 326.098C358.176 325.011 348.419 329.695 336.627 342.353C329.571 350.146 322.897 358.744 316.721 367.242C301.22 388.572 283.535 407.375 264.201 425.225C253.645 434.971 241.679 446.393 240.451 461.458C238.506 485.325 254.071 504.515 263.949 524.815C271.544 540.745 272.96 559.055 285.288 572.69C299.076 589.805 323.882 587.505 339.34 573.395C365.72 549.325 363.187 506.105 362.248 473.491C361.988 464.447 360.303 454.879 360.772 446.103C367.031 485.195 385.483 517.945 386.096 559.375C386.836 609.335 374.199 647.155 353.717 691.715C339.434 722.79 322.316 771.415 322.508 805.395C307.34 795.68 287.195 780.315 273.882 768.175C206.244 706.035 165.594 619.905 160.62 528.19C156.151 428.976 187.785 342.309 254.791 268.954C307.119 212.608 376.584 175.114 452.404 162.291C468.636 159.543 483.448 158.455 499.816 157.72Z" fill="white"/>
</svg>